<mxfile host="app.diagrams.net" modified="2022-10-02T08:02:13.882Z" agent="5.0 (Macintosh)" etag="zhe6Yg2qFyhD-SBEV7mm" version="20.4.0" type="github">
  <diagram id="uDeYrCszZ3N2R0U83_AO" name="Page-1">
    <mxGraphModel dx="946" dy="502" grid="1" gridSize="10" guides="1" tooltips="1" connect="1" arrows="1" fold="1" page="1" pageScale="1" pageWidth="850" pageHeight="1100" math="0" shadow="0">
      <root>
        <mxCell id="0" />
        <mxCell id="1" parent="0" />
        <mxCell id="zz4zuO4XC7DOk9u1iTiz-1" value="" style="rounded=0;whiteSpace=wrap;html=1;fillColor=#dae8fc;strokeColor=#6c8ebf;" vertex="1" parent="1">
          <mxGeometry x="210" y="90" width="430" height="110" as="geometry" />
        </mxCell>
        <mxCell id="zz4zuO4XC7DOk9u1iTiz-2" value="" style="rounded=0;whiteSpace=wrap;html=1;fillColor=#f8cecc;strokeColor=#b85450;" vertex="1" parent="1">
          <mxGeometry x="210" y="214" width="430" height="110" as="geometry" />
        </mxCell>
        <mxCell id="zz4zuO4XC7DOk9u1iTiz-11" style="edgeStyle=orthogonalEdgeStyle;rounded=0;orthogonalLoop=1;jettySize=auto;html=1;entryX=0.5;entryY=0;entryDx=0;entryDy=0;endArrow=none;endFill=0;" edge="1" parent="1" source="zz4zuO4XC7DOk9u1iTiz-3" target="zz4zuO4XC7DOk9u1iTiz-8">
          <mxGeometry relative="1" as="geometry" />
        </mxCell>
        <mxCell id="zz4zuO4XC7DOk9u1iTiz-3" value="&lt;div&gt;Container 1&lt;/div&gt;&lt;div&gt;(namespaces)&lt;br&gt;&lt;/div&gt;" style="rounded=1;whiteSpace=wrap;html=1;dashed=1;fillColor=#ffe6cc;strokeColor=#d79b00;" vertex="1" parent="1">
          <mxGeometry x="230" y="125" width="120" height="60" as="geometry" />
        </mxCell>
        <mxCell id="zz4zuO4XC7DOk9u1iTiz-12" style="edgeStyle=orthogonalEdgeStyle;rounded=0;orthogonalLoop=1;jettySize=auto;html=1;entryX=0.5;entryY=0;entryDx=0;entryDy=0;endArrow=none;endFill=0;" edge="1" parent="1" source="zz4zuO4XC7DOk9u1iTiz-4" target="zz4zuO4XC7DOk9u1iTiz-9">
          <mxGeometry relative="1" as="geometry" />
        </mxCell>
        <mxCell id="zz4zuO4XC7DOk9u1iTiz-4" value="&lt;div&gt;Container 2&lt;br&gt;&lt;/div&gt;&lt;div&gt;(namespaces)&lt;br&gt;&lt;/div&gt;" style="rounded=1;whiteSpace=wrap;html=1;dashed=1;fillColor=#ffe6cc;strokeColor=#d79b00;" vertex="1" parent="1">
          <mxGeometry x="365" y="125" width="120" height="60" as="geometry" />
        </mxCell>
        <mxCell id="zz4zuO4XC7DOk9u1iTiz-13" style="edgeStyle=orthogonalEdgeStyle;rounded=0;orthogonalLoop=1;jettySize=auto;html=1;entryX=0.5;entryY=0;entryDx=0;entryDy=0;endArrow=none;endFill=0;" edge="1" parent="1" source="zz4zuO4XC7DOk9u1iTiz-5" target="zz4zuO4XC7DOk9u1iTiz-10">
          <mxGeometry relative="1" as="geometry" />
        </mxCell>
        <mxCell id="zz4zuO4XC7DOk9u1iTiz-5" value="&lt;div&gt;Container 3&lt;br&gt;&lt;/div&gt;&lt;div&gt;(namespaces)&lt;br&gt;&lt;/div&gt;" style="rounded=1;whiteSpace=wrap;html=1;dashed=1;fillColor=#ffe6cc;strokeColor=#d79b00;" vertex="1" parent="1">
          <mxGeometry x="500" y="125" width="120" height="60" as="geometry" />
        </mxCell>
        <mxCell id="zz4zuO4XC7DOk9u1iTiz-6" value="Host" style="text;html=1;strokeColor=none;fillColor=none;align=center;verticalAlign=middle;whiteSpace=wrap;rounded=0;dashed=1;" vertex="1" parent="1">
          <mxGeometry x="390" y="94" width="60" height="30" as="geometry" />
        </mxCell>
        <mxCell id="zz4zuO4XC7DOk9u1iTiz-7" value="Kernel" style="text;html=1;strokeColor=none;fillColor=none;align=center;verticalAlign=middle;whiteSpace=wrap;rounded=0;dashed=1;" vertex="1" parent="1">
          <mxGeometry x="395" y="297" width="60" height="30" as="geometry" />
        </mxCell>
        <mxCell id="zz4zuO4XC7DOk9u1iTiz-8" value="cgroups" style="shape=trapezoid;perimeter=trapezoidPerimeter;whiteSpace=wrap;html=1;fixedSize=1;fillColor=#d5e8d4;strokeColor=#82b366;" vertex="1" parent="1">
          <mxGeometry x="230" y="233" width="120" height="60" as="geometry" />
        </mxCell>
        <mxCell id="zz4zuO4XC7DOk9u1iTiz-9" value="cgroups" style="shape=trapezoid;perimeter=trapezoidPerimeter;whiteSpace=wrap;html=1;fixedSize=1;fillColor=#d5e8d4;strokeColor=#82b366;" vertex="1" parent="1">
          <mxGeometry x="365" y="232" width="120" height="60" as="geometry" />
        </mxCell>
        <mxCell id="zz4zuO4XC7DOk9u1iTiz-10" value="cgroups" style="shape=trapezoid;perimeter=trapezoidPerimeter;whiteSpace=wrap;html=1;fixedSize=1;fillColor=#d5e8d4;strokeColor=#82b366;" vertex="1" parent="1">
          <mxGeometry x="500" y="231" width="120" height="60" as="geometry" />
        </mxCell>
        <mxCell id="zz4zuO4XC7DOk9u1iTiz-14" value="Restricts what container can see" style="rounded=0;whiteSpace=wrap;html=1;fillColor=#f5f5f5;fontColor=#333333;strokeColor=#666666;" vertex="1" parent="1">
          <mxGeometry x="680" y="130" width="120" height="60" as="geometry" />
        </mxCell>
        <mxCell id="zz4zuO4XC7DOk9u1iTiz-15" value="" style="endArrow=none;html=1;rounded=0;exitX=0.833;exitY=0.583;exitDx=0;exitDy=0;entryX=0;entryY=0.5;entryDx=0;entryDy=0;exitPerimeter=0;" edge="1" parent="1" source="zz4zuO4XC7DOk9u1iTiz-5" target="zz4zuO4XC7DOk9u1iTiz-14">
          <mxGeometry width="50" height="50" relative="1" as="geometry">
            <mxPoint x="680" y="134" as="sourcePoint" />
            <mxPoint x="730" y="84" as="targetPoint" />
          </mxGeometry>
        </mxCell>
        <mxCell id="zz4zuO4XC7DOk9u1iTiz-16" value="Restricts what container can use" style="rounded=0;whiteSpace=wrap;html=1;fillColor=#f5f5f5;fontColor=#333333;strokeColor=#666666;" vertex="1" parent="1">
          <mxGeometry x="680" y="231" width="120" height="60" as="geometry" />
        </mxCell>
        <mxCell id="zz4zuO4XC7DOk9u1iTiz-17" value="" style="endArrow=none;html=1;rounded=0;entryX=0;entryY=0.5;entryDx=0;entryDy=0;" edge="1" parent="1" target="zz4zuO4XC7DOk9u1iTiz-16">
          <mxGeometry width="50" height="50" relative="1" as="geometry">
            <mxPoint x="610" y="261" as="sourcePoint" />
            <mxPoint x="730" y="189" as="targetPoint" />
          </mxGeometry>
        </mxCell>
      </root>
    </mxGraphModel>
  </diagram>
</mxfile>
